<svg xmlns="http://www.w3.org/2000/svg" viewBox="-90.00 -1111.39 8184.04 1495.79" fill="none"><g transform="translate(0 -1021.395) scale(54.82456)" fill="none"><path d="M12 3.5 3.5 8 12 12.5 20.5 8 12 3.5Z" stroke="#7fd4ab" stroke-width="1.7" stroke-linejoin="round"/><path d="m3.5 12.5 8.5 4.5 8.5-4.5" stroke="#7fd4ab" stroke-width="1.7" stroke-linecap="round" stroke-linejoin="round" opacity=".65"/><path d="m3.5 17 8.5 4.5L20.5 17" stroke="#7fd4ab" stroke-width="1.7" stroke-linecap="round" stroke-linejoin="round" opacity=".35"/></g><g transform="translate(1864.035 0)"><path d="M467-527L594-527C591-650 487-737 332-737C179-737 64-651 65-523C65-418 139-358 259-327L341-306C420-286 472-262 472-205C472-143 413-102 327-102C244-102 180-138 175-215L45-215C51-70 158 11 328 11C502 11 603-76 604-204C603-330 499-388 390-414L322-431C262-445 197-470 198-531C199-586 248-626 330-626C408-626 460-589 467-527ZM938 11C1098 11 1199-102 1199-271C1199-440 1098-553 938-553C778-553 677-440 677-271C677-102 778 11 938 11ZM939-92C850-92 807-171 807-271C807-371 850-451 939-451C1026-451 1069-371 1069-271C1069-171 1026-92 939-92ZM1641-229C1641-146 1582-105 1525-105C1463-105 1422-149 1422-218L1422-545L1293-545L1293-198C1293-67 1368 7 1475 7C1557 7 1614-36 1639-97L1645-97L1645 0L1769 0L1769-545L1641-545ZM1886 0L2015 0L2015-321C2015-390 2067-439 2138-439C2160-439 2187-435 2198-431L2198-550C2186-552 2166-553 2151-553C2089-553 2037-518 2017-455L2011-455L2011-545L1886-545ZM2483 11C2620 11 2708-71 2717-186L2594-186C2583-128 2541-94 2484-94C2404-94 2352-161 2352-273C2352-383 2405-449 2484-449C2546-449 2584-409 2594-357L2717-357C2708-475 2616-553 2483-553C2323-553 2222-437 2222-271C2222-105 2320 11 2483 11ZM3049 11C3176 11 3264-51 3287-146L3166-160C3149-114 3106-89 3051-89C2968-89 2913-144 2912-238L3292-238L3292-277C3292-468 3177-553 3043-553C2886-553 2784-438 2784-270C2784-98 2885 11 3049 11ZM2912-324C2916-394 2968-452 3044-452C3118-452 3168-398 3169-324ZM3624 0L4076 0L4076-110L3756-110L3756-727L3624-727ZM4327 11C4412 11 4463-29 4487-75L4491-75L4491 0L4615 0L4615-365C4615-509 4497-553 4393-553C4278-553 4190-501 4162-402L4282-385C4295-422 4331-454 4394-454C4454-454 4486-424 4486-370L4486-368C4486-331 4447-329 4351-319C4245-308 4144-276 4144-153C4144-46 4223 11 4327 11ZM4360-83C4306-83 4268-108 4268-155C4268-205 4311-225 4369-233C4402-238 4470-246 4487-260L4487-196C4487-135 4438-83 4360-83ZM4789 205C4890 205 4947 153 4978 66L5197-545L5060-545L4934-134L4928-134L4803-545L4666-545L4864 11L4853 41C4829 103 4791 107 4735 91L4706 191C4723 198 4754 205 4789 205ZM5493 11C5620 11 5708-51 5730-146L5610-160C5593-114 5550-89 5495-89C5412-89 5357-144 5356-238L5736-238L5736-277C5736-468 5621-553 5486-553C5330-553 5228-438 5228-270C5228-98 5329 11 5493 11ZM5356-324C5360-394 5411-452 5488-452C5562-452 5612-398 5612-324ZM5829 0L5958 0L5958-321C5958-390 6010-439 6081-439C6102-439 6129-435 6140-431L6140-550C6129-552 6108-553 6094-553C6032-553 5980-518 5960-455L5954-455L5954-545L5829-545Z" fill="#f2f6f4"/></g></svg>