<svg xmlns="http://www.w3.org/2000/svg" viewBox="38 28 364 344" fill="none">
<path d="M220 190 380 270 220 350 60 270Z" stroke="#14724d" stroke-opacity=".28" stroke-width="1.5"/>
<path d="M220 120 380 200 220 280 60 200Z" stroke="#14724d" stroke-opacity=".5" stroke-width="1.5" fill="#14724d" fill-opacity=".04"/>
<path d="M60 130v140M380 130v140M220 210v140" stroke="#14724d" stroke-opacity=".32" stroke-dasharray="2 7"/>
<path d="M220 50 380 130 220 210 60 130Z" stroke="#14724d" stroke-opacity="1" stroke-width="1.8" fill="#14724d" fill-opacity=".08"/>
<path d="M220 90 292 126M220 90 148 126M148 126l72 36M292 126l-72 36" stroke="#14724d" stroke-opacity=".45"/>
<circle cx="220" cy="90" r="3.2" fill="#14724d"/>
<circle cx="292" cy="126" r="3.2" fill="#14724d" opacity=".8"/>
<circle cx="148" cy="126" r="3.2" fill="#14724d" opacity=".8"/>
<circle cx="220" cy="162" r="3.2" fill="#14724d" opacity=".55"/>
</svg>